<svg width="20" height="20" viewBox="0 0 20 20" fill="none" xmlns="http://www.w3.org/2000/svg">
<path d="M16.502 10.209L14.385 9.967C14.1362 9.93778 13.8841 9.96534 13.6475 10.0476C13.4109 10.1299 13.196 10.2647 13.019 10.442L11.485 11.975C9.12009 10.7717 7.19789 8.84916 5.99503 6.484L7.53503 4.942C7.89503 4.584 8.07003 4.084 8.01103 3.575L7.77003 1.475C7.72265 1.06824 7.52728 0.693123 7.22116 0.421114C6.91503 0.149106 6.51954 -0.000783303 6.11003 3.07863e-06H4.67003C3.72803 3.07863e-06 2.94503 0.784003 3.00303 1.725C3.44503 8.842 9.13603 14.525 16.245 14.967C17.185 15.025 17.969 14.242 17.969 13.3V11.859C17.9711 11.4516 17.8226 11.0578 17.552 10.7533C17.2814 10.4487 16.9068 10.2549 16.502 10.209Z" fill="#8FCB9B"/>
</svg>
