<svg width="29" height="31" viewBox="0 0 29 31" fill="none" xmlns="http://www.w3.org/2000/svg">
<path d="M14.5 0C6.52526 0 0 6.90151 0 15.3361C0 23.7706 6.52526 30.6722 14.5 30.6722C22.4747 30.6722 29 23.7706 29 15.3361C29 6.90151 22.4747 0 14.5 0ZM19.6471 21.1646L13.7309 17.3145C13.5179 17.1799 13.3417 16.989 13.2196 16.7606C13.0976 16.5321 13.0339 16.2739 13.0349 16.0115V8.81737C13.0425 8.51199 13.1616 8.22161 13.3673 8.00714C13.573 7.79268 13.8493 7.67082 14.1381 7.66712C14.4258 7.66953 14.7011 7.79148 14.9046 8.00668C15.108 8.22187 15.2233 8.51305 15.2256 8.81737V15.6416L20.7938 19.1844C21.3159 19.523 21.4899 20.2426 21.1697 20.7966C21.0123 21.0569 20.7645 21.2414 20.4796 21.3102C20.1948 21.3791 19.8958 21.3268 19.6471 21.1646Z" fill="#8FCB9B"/>
</svg>
